<svg width="287" height="48" viewBox="0 0 287 48" xmlns="http://www.w3.org/2000/svg"><title>logo-st-tech</title><g fill="none" fill-rule="evenodd"><path d="M60.935 35.276c-1.8 0-3.864-.9-5.135-2.064l1.694-2.7c.847.688 2.33 1.588 3.494 1.588 1.747 0 2.912-1.218 2.912-2.912 0-3.6-8.524-4.13-8.524-10.694 0-3.494 2.648-5.718 6.036-5.718 2.064 0 4.394 1.006 5.612 2.7l-2.065 2.012c-.795-.9-2.172-1.64-3.39-1.64-1.482 0-2.54.952-2.54 2.434 0 4.5 8.523 3.918 8.523 10.906-.053 3.706-3.07 6.088-6.618 6.088zM77.718 16.694v18.053h-3.706V16.694h-4.66v-3.388h13.13v3.388h-4.764zM92.647 35.276c-5.188 0-7.04-4.34-7.04-8.947V13.305h3.705v13.076c0 2.277.317 5.665 3.282 5.665 3.018 0 3.282-3.388 3.282-5.665V13.306h3.706v13.076c.106 4.606-1.747 8.894-6.935 8.894zM111.176 34.8h-6.14V13.306h6.458c6.194 0 7.994 5.506 7.994 10.8 0 5.294-2.276 10.694-8.312 10.694zm.16-18.318h-2.648v15.09h2.436c3.97 0 4.552-4.343 4.552-7.413.053-2.966-.37-7.678-4.34-7.678zM123.724 34.8V13.306h3.705V34.8h-3.706zM138.706 16.694v18.053H135V16.694h-4.712v-3.388h13.183v3.388h-4.764zM146.594 34.8V13.306h11.594v3.282H150.3v5.347h6.035v3.336H150.3v6.142h8.206V34.8h-11.912zM178.835 34.8V22.94l.265-2.487-4.976 14.347h-3.07l-4.978-14.347.265 2.488V34.8h-3.705V13.306h4.34l5.137 14.56c.317 1.005.476 1.905.476 1.905s.16-.9.477-1.905l5.135-14.56h4.34V34.8h-3.705zM193.765 27.494c-.636 0-1.59-.265-2.224-.53V34.8h-3.705V13.306h4.977c4.66 0 8.364 1.694 8.364 6.83 0 4.34-3.123 7.358-7.41 7.358zm-.953-11.012h-1.27v7.306c.53.212 1.43.477 1.958.477 2.33 0 3.97-1.96 3.97-4.183 0-2.647-2.435-3.6-4.658-3.6zM209.7 35.276c-1.8 0-3.865-.9-5.135-2.064l1.694-2.7c.846.688 2.328 1.588 3.493 1.588 1.747 0 2.912-1.218 2.912-2.912 0-3.6-8.524-4.13-8.524-10.694 0-3.494 2.648-5.718 6.036-5.718 2.065 0 4.395 1.006 5.612 2.7l-2.064 2.012c-.795-.9-2.17-1.64-3.39-1.64-1.48 0-2.54.952-2.54 2.434 0 4.5 8.524 3.918 8.524 10.906-.053 3.706-3.07 6.088-6.618 6.088z" fill="#555254"/><path d="M282.6 13.306V22.2h-7.624v-8.894h-3.652V34.8h3.652v-8.894h7.624V34.8h3.706V13.306H282.6zM233.788 16.694v18.053h-3.706V16.694h-4.71v-3.388H238.5v3.388h-4.712zM241.676 34.8V13.306h11.595v3.282h-7.888v5.347h6.036v3.336h-6.036v6.142h8.206V34.8h-11.912zM264.176 31.57c-3.97 0-4.552-4.34-4.552-7.41 0-2.966.423-7.625 4.394-7.625h4.182v-3.23h-4.34c-6.195 0-7.995 5.507-7.995 10.8 0 5.348 2.276 10.695 8.31 10.695h4.025v-3.23h-4.024zM220.66 31.094h3.705V34.8h-3.706z" fill="#44BCDB"/><path d="M42.46 42H5.56A5.558 5.558 0 0 1 0 36.44V11.56C0 8.487 2.488 6 5.56 6h36.9c3.07 0 5.558 2.488 5.558 5.56v24.934c0 3.018-2.49 5.506-5.56 5.506z" fill="#555254"/><g fill="#44BCDB"><path d="M10.96 34.8H7.2l4.235-10.747L7.2 13.306h3.76l4.234 10.747L10.96 34.8zM16.373 34.787v-3.335h10.642v3.335H16.373z"/></g></g></svg>