<?xml version="1.0" encoding="UTF-8" standalone="no"?>
<svg width="287px" height="48px" viewBox="0 0 287 48" version="1.1" xmlns="http://www.w3.org/2000/svg" xmlns:xlink="http://www.w3.org/1999/xlink" xmlns:sketch="http://www.bohemiancoding.com/sketch/ns">
    <!-- Generator: Sketch 3.4.2 (15855) - http://www.bohemiancoding.com/sketch -->
    <title>logo-st-tech</title>
    <desc>Created with Sketch.</desc>
    <defs></defs>
    <g id="Page-1" stroke="none" stroke-width="1" fill="none" fill-rule="evenodd" sketch:type="MSPage">
        <g id="logo-st-tech" sketch:type="MSArtboardGroup">
            <g sketch:type="MSLayerGroup" transform="translate(0.000000, 6.000000)" id="Group">
                <g sketch:type="MSShapeGroup">
                    <g transform="translate(55.058824, 6.352941)">
                        <path d="M5.87647059,22.9235294 C4.07647059,22.9235294 2.01176471,22.0235294 0.741176471,20.8588235 L2.43529412,18.1588235 C3.28235294,18.8470588 4.76470588,19.7470588 5.92941176,19.7470588 C7.67647059,19.7470588 8.84117647,18.5294118 8.84117647,16.8352941 C8.84117647,13.2352941 0.317647059,12.7058824 0.317647059,6.14117647 C0.317647059,2.64705882 2.96470588,0.423529412 6.35294118,0.423529412 C8.41764706,0.423529412 10.7470588,1.42941176 11.9647059,3.12352941 L9.9,5.13529412 C9.10588235,4.23529412 7.72941176,3.49411765 6.51176471,3.49411765 C5.02941176,3.49411765 3.97058824,4.44705882 3.97058824,5.92941176 C3.97058824,10.4294118 12.4941176,9.84705882 12.4941176,16.8352941 C12.4411765,20.5411765 9.42352941,22.9235294 5.87647059,22.9235294 L5.87647059,22.9235294 Z" id="Shape" fill="#555254"></path>
                        <path d="M22.6588235,4.34117647 L22.6588235,22.3941176 L18.9529412,22.3941176 L18.9529412,4.34117647 L14.2941176,4.34117647 L14.2941176,0.952941176 L27.4235294,0.952941176 L27.4235294,4.34117647 L22.6588235,4.34117647 L22.6588235,4.34117647 Z" id="Shape" fill="#555254"></path>
                        <path d="M37.5882353,22.9235294 C32.4,22.9235294 30.5470588,18.5823529 30.5470588,13.9764706 L30.5470588,0.952941176 L34.2529412,0.952941176 L34.2529412,14.0294118 C34.2529412,16.3058824 34.5705882,19.6941176 37.5352941,19.6941176 C40.5529412,19.6941176 40.8176471,16.3058824 40.8176471,14.0294118 L40.8176471,0.952941176 L44.5235294,0.952941176 L44.5235294,14.0294118 C44.6294118,18.6352941 42.7764706,22.9235294 37.5882353,22.9235294 L37.5882353,22.9235294 Z" id="Shape" fill="#555254"></path>
                        <path d="M56.1176471,22.4470588 L49.9764706,22.4470588 L49.9764706,0.952941176 L56.4352941,0.952941176 C62.6294118,0.952941176 64.4294118,6.45882353 64.4294118,11.7529412 C64.4294118,17.0470588 62.1529412,22.4470588 56.1176471,22.4470588 L56.1176471,22.4470588 Z M56.2764706,4.12941176 L53.6294118,4.12941176 L53.6294118,19.2176471 L56.0647059,19.2176471 C60.0352941,19.2176471 60.6176471,14.8764706 60.6176471,11.8058824 C60.6705882,8.84117647 60.2470588,4.12941176 56.2764706,4.12941176 L56.2764706,4.12941176 Z" id="Shape" fill="#555254"></path>
                        <path d="M68.6647059,22.4470588 L68.6647059,0.952941176 L72.3705882,0.952941176 L72.3705882,22.4470588 L68.6647059,22.4470588 L68.6647059,22.4470588 Z" id="Shape" fill="#555254"></path>
                        <path d="M83.6470588,4.34117647 L83.6470588,22.3941176 L79.9411765,22.3941176 L79.9411765,4.34117647 L75.2294118,4.34117647 L75.2294118,0.952941176 L88.4117647,0.952941176 L88.4117647,4.34117647 L83.6470588,4.34117647 L83.6470588,4.34117647 Z" id="Shape" fill="#555254"></path>
                        <path d="M91.5352941,22.4470588 L91.5352941,0.952941176 L103.129412,0.952941176 L103.129412,4.23529412 L95.2411765,4.23529412 L95.2411765,9.58235294 L101.276471,9.58235294 L101.276471,12.9176471 L95.2411765,12.9176471 L95.2411765,19.0588235 L103.447059,19.0588235 L103.447059,22.4470588 L91.5352941,22.4470588 L91.5352941,22.4470588 Z" id="Shape" fill="#555254"></path>
                        <path d="M123.776471,22.4470588 L123.776471,10.5882353 L124.041176,8.1 L119.064706,22.4470588 L115.994118,22.4470588 L111.017647,8.1 L111.282353,10.5882353 L111.282353,22.4470588 L107.576471,22.4470588 L107.576471,0.952941176 L111.917647,0.952941176 L117.052941,15.5117647 C117.370588,16.5176471 117.529412,17.4176471 117.529412,17.4176471 C117.529412,17.4176471 117.688235,16.5176471 118.005882,15.5117647 L123.141176,0.952941176 L127.482353,0.952941176 L127.482353,22.4470588 L123.776471,22.4470588 L123.776471,22.4470588 Z" id="Shape" fill="#555254"></path>
                        <path d="M138.705882,15.1411765 C138.070588,15.1411765 137.117647,14.8764706 136.482353,14.6117647 L136.482353,22.4470588 L132.776471,22.4470588 L132.776471,0.952941176 L137.752941,0.952941176 C142.411765,0.952941176 146.117647,2.64705882 146.117647,7.78235294 C146.117647,12.1235294 142.994118,15.1411765 138.705882,15.1411765 L138.705882,15.1411765 Z M137.752941,4.12941176 L136.482353,4.12941176 L136.482353,11.4352941 C137.011765,11.6470588 137.911765,11.9117647 138.441176,11.9117647 C140.770588,11.9117647 142.411765,9.95294118 142.411765,7.72941176 C142.411765,5.08235294 139.976471,4.12941176 137.752941,4.12941176 L137.752941,4.12941176 Z" id="Shape" fill="#555254"></path>
                        <path d="M154.641176,22.9235294 C152.841176,22.9235294 150.776471,22.0235294 149.505882,20.8588235 L151.2,18.1588235 C152.047059,18.8470588 153.529412,19.7470588 154.694118,19.7470588 C156.441176,19.7470588 157.605882,18.5294118 157.605882,16.8352941 C157.605882,13.2352941 149.082353,12.7058824 149.082353,6.14117647 C149.082353,2.64705882 151.729412,0.423529412 155.117647,0.423529412 C157.182353,0.423529412 159.511765,1.42941176 160.729412,3.12352941 L158.664706,5.13529412 C157.870588,4.23529412 156.494118,3.49411765 155.276471,3.49411765 C153.794118,3.49411765 152.735294,4.44705882 152.735294,5.92941176 C152.735294,10.4294118 161.258824,9.84705882 161.258824,16.8352941 C161.205882,20.5411765 158.188235,22.9235294 154.641176,22.9235294 L154.641176,22.9235294 Z" id="Shape" fill="#555254"></path>
                        <path d="M227.541176,0.952941176 L227.541176,9.84705882 L219.917647,9.84705882 L219.917647,0.952941176 L216.264706,0.952941176 L216.264706,22.4470588 L219.917647,22.4470588 L219.917647,13.5529412 L227.541176,13.5529412 L227.541176,22.4470588 L231.247059,22.4470588 L231.247059,0.952941176 L227.541176,0.952941176 Z" id="Shape" fill="#44BCDB"></path>
                        <path d="M178.729412,4.34117647 L178.729412,22.3941176 L175.023529,22.3941176 L175.023529,4.34117647 L170.311765,4.34117647 L170.311765,0.952941176 L183.441176,0.952941176 L183.441176,4.34117647 L178.729412,4.34117647 L178.729412,4.34117647 Z" id="Shape" fill="#44BCDB"></path>
                        <path d="M186.617647,22.4470588 L186.617647,0.952941176 L198.211765,0.952941176 L198.211765,4.23529412 L190.323529,4.23529412 L190.323529,9.58235294 L196.358824,9.58235294 L196.358824,12.9176471 L190.323529,12.9176471 L190.323529,19.0588235 L198.529412,19.0588235 L198.529412,22.4470588 L186.617647,22.4470588 L186.617647,22.4470588 Z" id="Shape" fill="#44BCDB"></path>
                        <path d="M209.117647,19.2176471 C205.147059,19.2176471 204.564706,14.8764706 204.564706,11.8058824 C204.564706,8.84117647 204.988235,4.18235294 208.958824,4.18235294 L213.141176,4.18235294 L213.141176,0.952941176 L208.8,0.952941176 C202.605882,0.952941176 200.805882,6.45882353 200.805882,11.7529412 C200.805882,17.1 203.082353,22.4470588 209.117647,22.4470588 L213.141176,22.4470588 L213.141176,19.2176471 L209.117647,19.2176471 L209.117647,19.2176471 Z" id="Shape" fill="#44BCDB"></path>
                        <rect id="Rectangle-path" fill="#44BCDB" x="165.6" y="18.7411765" width="3.70588235" height="3.70588235"></rect>
                    </g>
                    <path d="M42.4588235,36 L5.55882353,36 C2.48823529,36 0,33.5117647 0,30.4411765 L0,5.55882353 C0,2.48823529 2.48823529,0 5.55882353,0 L42.4588235,0 C45.5294118,0 48.0176471,2.48823529 48.0176471,5.55882353 L48.0176471,30.4941176 C48.0176471,33.5117647 45.5294118,36 42.4588235,36 L42.4588235,36 Z" id="Shape" fill="#555254"></path>
                    <g transform="translate(6.882353, 6.882353)" fill="#44BCDB">
                        <path d="M4.07647059,21.9176471 L0.317647059,21.9176471 L4.55294118,11.1705882 L0.317647059,0.423529412 L4.07647059,0.423529412 L8.31176471,11.1705882 L4.07647059,21.9176471 Z" id="Shape"></path>
                        <path d="M9.4911353,21.9046765 L9.4911353,18.5693824 L20.1323118,18.5693824 L20.1323118,21.9046765 L9.4911353,21.9046765 L9.4911353,21.9046765 Z" id="Rectangle-path"></path>
                    </g>
                </g>
            </g>
        </g>
    </g>
</svg>